<?xml version="1.0" standalone="no"?>
<!DOCTYPE svg PUBLIC "-//W3C//DTD SVG 20010904//EN"
 "http://www.w3.org/TR/2001/REC-SVG-20010904/DTD/svg10.dtd">
<svg version="1.0" xmlns="http://www.w3.org/2000/svg"
 width="1200.000000pt" height="1200.000000pt" viewBox="0 0 1200.000000 1200.000000"
 preserveAspectRatio="xMidYMid meet">
<metadata>
Created by potrace 1.14, written by Peter Selinger 2001-2017
</metadata>
<g transform="translate(0.000000,1200.000000) scale(0.100000,-0.100000)"
fill="#000000" stroke="none">
<path d="M0 6000 l0 -6000 6000 0 6000 0 0 6000 0 6000 -6000 0 -6000 0 0
-6000z m2327 2111 c10 -10 30 -21 45 -25 19 -4 32 -17 42 -41 8 -19 19 -35 25
-35 5 0 12 -18 16 -40 6 -33 11 -40 30 -40 13 0 31 -7 40 -17 11 -10 42 -18
85 -22 37 -4 74 -11 81 -17 8 -6 46 -17 84 -25 39 -7 76 -19 83 -26 8 -8 38
-13 74 -13 42 0 67 -5 79 -16 10 -9 49 -20 89 -25 39 -5 81 -15 93 -24 12 -8
43 -15 71 -15 32 0 56 -6 68 -16 11 -11 44 -19 87 -23 38 -4 75 -11 82 -17 8
-6 47 -16 87 -23 40 -7 79 -19 87 -27 8 -9 35 -14 70 -14 39 0 64 -6 83 -19
15 -10 53 -22 86 -25 32 -4 66 -11 76 -16 10 -5 44 -13 76 -16 33 -4 67 -14
77 -22 10 -9 47 -18 93 -21 41 -4 78 -12 82 -18 4 -6 41 -16 82 -22 41 -7 82
-18 90 -26 10 -9 37 -15 67 -15 35 0 58 -6 76 -20 14 -11 38 -20 54 -20 15 0
46 -5 68 -11 22 -6 78 -17 124 -25 46 -7 87 -18 91 -24 4 -7 38 -15 76 -20 38
-5 70 -13 72 -19 2 -6 18 -11 36 -11 42 0 136 -28 136 -40 0 -6 29 -10 64 -10
45 0 69 -5 80 -16 9 -9 40 -18 74 -20 31 -3 75 -14 97 -24 22 -10 67 -22 100
-25 33 -4 72 -14 87 -21 15 -8 49 -14 77 -14 27 0 51 -5 53 -10 2 -6 43 -19
91 -29 49 -10 94 -24 100 -30 6 -6 36 -11 67 -11 39 0 62 -6 80 -20 16 -13 41
-20 70 -20 25 0 61 -8 80 -19 19 -10 63 -22 98 -26 34 -4 69 -13 77 -21 9 -9
36 -14 78 -14 42 0 68 -5 76 -14 6 -7 46 -19 89 -26 42 -8 83 -20 90 -27 7 -7
34 -13 58 -13 25 0 62 -9 84 -20 23 -12 59 -20 87 -20 27 0 57 -6 68 -13 11
-8 49 -20 85 -27 36 -7 75 -19 87 -26 12 -8 44 -14 70 -14 26 0 60 -7 76 -15
15 -8 59 -18 97 -24 38 -5 79 -16 92 -25 12 -9 42 -16 65 -16 33 0 48 6 68 27
14 15 25 33 25 40 0 7 7 13 15 13 8 0 15 4 15 9 0 14 60 71 74 71 7 0 21 9 31
20 10 11 30 20 45 20 14 0 35 7 46 15 27 21 187 21 204 0 7 -8 28 -15 47 -15
26 0 36 -5 40 -20 3 -13 14 -20 28 -20 13 0 32 -11 43 -25 11 -14 23 -25 26
-25 12 0 55 -54 56 -68 0 -8 9 -25 19 -38 13 -17 22 -50 27 -102 4 -42 7 -79
7 -82 -1 -3 -4 -41 -8 -86 l-7 -80 57 -30 c32 -16 63 -37 69 -46 6 -10 16 -18
23 -18 19 0 92 -53 93 -67 0 -7 11 -13 25 -13 14 0 30 -9 37 -20 7 -11 20 -20
30 -20 9 0 20 -5 23 -10 4 -6 24 -18 46 -27 21 -8 39 -21 39 -29 0 -8 9 -14
20 -14 11 0 20 -5 20 -10 0 -6 18 -18 40 -27 22 -10 40 -23 40 -30 0 -7 9 -13
20 -13 11 0 23 -7 26 -15 3 -8 21 -19 40 -25 19 -6 34 -17 34 -23 1 -7 28 -25
60 -40 33 -15 60 -32 60 -37 0 -6 6 -10 14 -10 7 0 20 -7 27 -17 8 -9 29 -22
47 -30 18 -7 35 -20 39 -28 3 -8 10 -15 15 -15 6 0 37 -18 70 -40 33 -22 69
-40 79 -40 11 0 19 -7 19 -15 0 -8 7 -15 14 -15 8 0 27 -11 42 -25 15 -14 35
-25 44 -25 10 0 20 -9 23 -20 3 -12 14 -20 26 -20 12 0 21 -6 21 -13 0 -8 18
-20 40 -27 22 -7 40 -19 40 -27 0 -24 66 -16 96 12 15 14 32 25 39 25 7 0 18
7 25 15 16 20 142 21 159 2 6 -8 29 -19 51 -26 54 -16 128 -85 139 -130 29
-112 35 -153 23 -172 -7 -10 -12 -34 -12 -53 0 -19 -4 -37 -9 -41 -6 -3 -24
-26 -40 -51 -30 -44 -43 -114 -21 -114 5 0 14 -19 20 -42 6 -24 20 -61 30 -84
11 -23 20 -53 20 -66 0 -14 6 -31 14 -37 8 -7 17 -30 21 -52 5 -31 11 -39 29
-39 12 0 30 -6 41 -14 11 -7 37 -19 58 -25 20 -7 37 -19 37 -27 0 -8 7 -14 15
-14 8 0 15 -7 15 -15 0 -8 9 -23 20 -32 17 -15 20 -30 20 -100 0 -67 -3 -83
-15 -83 -8 0 -15 -8 -15 -18 0 -33 -42 -72 -110 -102 -38 -17 -150 -8 -162 13
-5 9 -18 17 -28 17 -11 0 -20 7 -20 15 0 9 -11 21 -25 27 -18 8 -25 19 -25 40
0 16 -7 36 -15 44 -8 9 -15 33 -15 53 0 22 6 44 15 51 8 7 15 23 15 35 0 12 9
34 20 48 l21 26 -21 42 c-11 24 -20 56 -20 71 0 16 -7 31 -15 34 -8 3 -17 25
-21 50 -3 24 -12 49 -20 55 -8 6 -14 20 -14 30 0 10 -8 37 -17 59 -16 36 -21
40 -54 40 -20 0 -42 6 -48 14 -7 8 -34 20 -61 26 -28 7 -50 16 -50 21 0 5 -11
11 -25 15 -16 4 -25 13 -25 25 0 10 -6 19 -13 19 -7 0 -25 27 -40 60 -25 54
-30 82 -36 198 -1 12 -7 22 -14 22 -8 0 -27 11 -43 25 -16 14 -35 25 -41 25
-7 0 -13 4 -13 10 0 5 -15 16 -34 24 -18 8 -37 19 -40 25 -4 6 -16 11 -27 11
-10 0 -19 4 -19 10 0 5 -16 17 -36 26 -20 9 -38 23 -41 31 -3 7 -13 13 -22 13
-9 0 -22 9 -29 20 -7 11 -21 20 -32 20 -11 0 -25 9 -32 20 -7 11 -18 20 -25
20 -7 0 -20 8 -30 19 -10 10 -29 22 -43 26 -14 4 -27 11 -30 14 -12 15 -91 61
-104 61 -8 0 -18 9 -21 20 -3 11 -11 20 -17 20 -15 0 -108 62 -108 72 0 4 -7
8 -16 8 -9 0 -27 9 -41 20 -14 11 -31 20 -37 20 -6 0 -17 9 -24 20 -7 11 -21
20 -32 20 -12 0 -23 6 -26 14 -3 8 -19 19 -35 25 -16 5 -29 15 -29 20 0 6 -7
11 -15 11 -8 0 -15 5 -15 10 0 6 -6 10 -14 10 -8 0 -16 7 -20 15 -3 8 -14 15
-25 15 -10 0 -21 6 -24 14 -3 8 -22 20 -41 27 -20 7 -36 17 -36 21 0 4 -6 8
-14 8 -7 0 -25 11 -40 25 -15 14 -36 25 -47 25 -10 0 -19 7 -19 15 0 8 -14 17
-36 21 -28 5 -42 2 -64 -15 -16 -11 -34 -21 -39 -21 -5 0 -16 -8 -23 -18 -9
-13 -38 -23 -89 -31 -97 -17 -241 0 -267 30 -9 11 -27 19 -39 19 -15 0 -27 9
-35 25 -6 14 -17 25 -25 25 -7 0 -13 6 -13 14 0 7 -8 16 -18 19 -11 2 -21 17
-25 35 -4 18 -14 33 -27 37 -15 5 -20 15 -20 43 0 20 -7 50 -15 66 -8 15 -15
40 -15 55 0 35 -17 51 -55 51 -16 0 -39 7 -49 15 -12 9 -42 15 -78 15 -43 0
-60 4 -64 15 -4 8 -17 15 -29 15 -36 0 -129 23 -136 33 -4 6 -39 13 -79 16
-42 4 -75 12 -79 20 -5 8 -37 16 -74 20 -36 4 -72 13 -80 20 -9 7 -48 17 -88
23 -40 5 -82 16 -93 24 -12 8 -44 14 -75 14 -31 0 -61 6 -70 13 -9 8 -47 19
-86 27 -38 7 -79 19 -90 26 -11 8 -41 14 -67 14 -29 0 -63 8 -85 20 -21 11
-57 20 -81 20 -23 0 -53 6 -65 14 -12 7 -53 19 -92 26 -38 7 -79 19 -90 26
-11 8 -44 14 -75 14 -30 0 -67 7 -82 14 -16 8 -49 18 -75 21 -27 4 -66 15 -88
25 -22 10 -65 20 -96 22 -35 3 -63 11 -74 21 -10 11 -33 17 -61 17 -25 0 -60
7 -79 15 -19 7 -63 19 -98 26 -34 7 -71 18 -82 26 -11 7 -41 13 -68 13 -27 0
-58 5 -70 12 -12 6 -55 17 -96 25 -41 7 -78 18 -82 24 -3 6 -37 15 -75 19 -38
4 -82 15 -99 24 -16 9 -53 16 -81 16 -31 0 -56 5 -63 13 -6 8 -43 20 -83 27
-40 7 -85 19 -100 26 -15 8 -44 14 -65 14 -21 0 -54 8 -73 18 -19 11 -60 22
-91 25 -31 4 -72 14 -92 22 -20 8 -56 15 -81 15 -29 0 -51 6 -62 17 -11 11
-38 18 -78 21 -33 2 -79 12 -101 22 -22 10 -66 21 -98 25 -31 3 -63 13 -71 21
-9 8 -35 14 -68 14 -37 0 -60 6 -78 20 -14 11 -39 20 -56 20 -17 0 -52 7 -79
14 -26 8 -73 18 -104 22 -30 4 -69 15 -86 25 -18 12 -49 19 -78 19 -26 0 -61
7 -77 15 -16 8 -62 20 -102 27 -40 7 -76 16 -79 21 -3 5 -37 12 -74 17 -45 6
-71 14 -77 24 -6 11 -24 16 -61 16 -29 0 -65 7 -82 16 -39 21 -145 32 -145 15
0 -7 -16 -19 -36 -27 -20 -8 -41 -19 -48 -25 -6 -5 -22 -17 -36 -28 -19 -14
-27 -34 -36 -91 -7 -39 -19 -79 -28 -89 -11 -12 -16 -36 -16 -73 0 -37 -5 -60
-15 -68 -9 -7 -15 -29 -15 -54 0 -25 -11 -64 -25 -94 -14 -29 -25 -67 -25 -85
0 -18 -6 -42 -14 -53 -8 -11 -18 -48 -22 -82 -3 -34 -13 -67 -20 -73 -8 -6
-14 -29 -14 -50 0 -42 -15 -90 -32 -101 -7 -3 -14 -35 -16 -70 -2 -35 -10 -70
-17 -78 -8 -8 -17 -40 -21 -70 -4 -30 -15 -71 -25 -90 -11 -19 -19 -53 -19
-76 0 -24 -6 -47 -14 -53 -8 -7 -18 -38 -21 -69 -4 -31 -13 -66 -19 -77 -7
-11 -16 -44 -19 -73 -3 -29 -15 -66 -27 -81 -14 -20 -20 -45 -20 -79 0 -32 -5
-54 -15 -62 -8 -7 -15 -26 -15 -42 0 -16 -9 -54 -19 -86 -10 -31 -22 -80 -26
-109 -4 -29 -13 -57 -20 -63 -7 -6 -16 -39 -20 -72 -4 -34 -14 -68 -21 -76 -8
-7 -14 -32 -14 -55 0 -25 -9 -56 -21 -76 -11 -19 -23 -60 -26 -90 -3 -31 -11
-63 -19 -71 -7 -8 -16 -40 -20 -70 -4 -30 -12 -66 -19 -80 -7 -14 -15 -49 -19
-79 -4 -29 -13 -63 -21 -75 -7 -11 -16 -45 -20 -74 -4 -29 -13 -59 -21 -67 -8
-8 -14 -34 -14 -64 0 -28 -6 -55 -13 -63 -36 -36 -37 -111 -2 -124 8 -4 15
-15 15 -25 0 -11 6 -22 14 -25 19 -7 31 -130 17 -164 -29 -66 -60 -105 -85
-108 -14 -2 -26 -10 -26 -17 0 -31 -173 -32 -195 -1 -7 9 -20 16 -29 16 -9 0
-16 7 -16 15 0 8 -9 19 -19 25 -11 5 -23 24 -26 42 -4 17 -14 38 -21 46 -18
17 -18 62 -1 87 7 11 19 39 27 63 7 23 19 42 27 42 7 0 13 6 13 13 0 6 15 18
32 25 18 8 43 18 56 23 12 5 27 20 34 34 6 14 15 25 19 25 4 0 11 26 15 58 4
31 15 68 25 81 13 16 19 40 19 73 0 27 7 59 15 71 8 12 17 49 21 82 4 33 13
66 21 73 7 7 13 30 13 51 0 21 11 60 25 87 16 31 25 66 25 95 0 25 5 50 10 55
13 13 48 130 65 216 7 38 17 74 23 80 5 7 13 41 17 75 4 34 13 67 21 74 8 7
14 30 14 58 0 31 8 59 25 86 16 27 24 55 25 87 0 27 6 53 15 61 8 9 18 41 21
74 4 32 13 67 20 78 7 11 17 45 23 75 27 133 47 210 59 222 7 7 12 37 12 69 0
38 4 59 13 62 16 6 37 73 37 120 0 20 6 37 14 40 8 3 16 29 21 64 4 32 13 65
20 73 7 8 15 40 18 70 3 30 12 69 20 85 8 17 18 54 22 84 4 30 14 61 21 69 8
7 14 33 14 57 0 28 9 61 25 91 14 26 25 63 25 83 0 20 7 50 16 66 8 17 18 51
21 77 3 27 12 53 19 59 24 20 16 68 -18 112 -66 82 -65 210 1 288 17 22 38 39
46 39 7 0 20 6 27 13 20 20 38 25 90 26 34 1 52 -4 65 -18z"/>
</g>
</svg>
